<?xml version="1.0" encoding="UTF-8"?><svg id="Capa_2" xmlns="http://www.w3.org/2000/svg" viewBox="0 0 209.64 209.58"><defs><style>.cls-1{stroke-width:0px;}</style></defs><g id="Capa_1-2"><path class="cls-1" d="m192.46.22c-9.64,1.5-17.49,6.72-24.14,13.4-10.42,10.48-20.35,21.44-30.43,32.26-.97,1.04-1.81,1.25-3.13.89-16.58-4.47-33.18-8.88-49.77-13.33-20.14-5.4-40.27-10.82-60.4-16.24-1.31-.35-2.46-.19-3.53.69-3.94,3.2-7.93,6.35-11.84,9.58-2.3,1.9-2.02,4.47.53,6.06,12.25,7.61,24.5,15.23,36.75,22.85,9.34,5.81,18.69,11.63,28.02,17.46,6.05,3.78,12.08,7.59,18.12,11.4,1.68,1.06,3.35,2.15,5.14,3.29-2.97,3.15-5.8,6.14-8.62,9.14-10.99,11.69-21.97,23.38-32.98,35.04-.33.35-1.04.59-1.52.53-1.89-.25-3.76-.65-5.64-.96-11.94-2.01-23.87-4.03-35.82-5.95-1.04-.17-2.45.05-3.24.66-3.01,2.35-5.87,4.89-8.71,7.45-1.87,1.69-1.57,4.13.56,5.46,9.12,5.7,18.25,11.39,27.37,17.1,2.02,1.27,4.03,2.56,6.1,3.86-1.22,1.87-2.39,3.56-3.47,5.31-2.39,3.85-4.75,7.72-5.67,12.24-.72,3.54,1.52,5.94,4.98,4.96,3.11-.88,6.14-2.19,9.01-3.68,2.97-1.53,5.71-3.5,8.67-5.35.76,1.22,1.5,2.4,2.24,3.58,6.15,9.85,12.29,19.7,18.44,29.55,1.63,2.61,4.02,2.82,6.05.5,2.22-2.53,4.36-5.14,6.62-7.63,1.16-1.28,1.47-2.64,1.14-4.3-.52-2.61-.94-5.24-1.38-7.87-1.77-10.5-3.5-21.02-5.34-31.51-.32-1.84-.06-3.05,1.42-4.41,9.1-8.38,18.07-16.9,27.08-25.37,5.27-4.96,10.55-9.91,16.04-15.07,2.4,3.83,4.69,7.48,6.98,11.14,5.72,9.16,11.44,18.33,17.16,27.49,5.43,8.69,10.86,17.39,16.28,26.08,4.92,7.89,9.82,15.79,14.77,23.66,1.37,2.17,3.96,2.4,5.6.43,3.35-4.01,6.66-8.06,9.82-12.22.62-.82.74-2.26.62-3.36-.17-1.58-.78-3.11-1.19-4.66-3.09-11.5-6.19-22.99-9.26-34.49-3.68-13.73-7.34-27.47-11.01-41.21-2.71-10.14-5.4-20.29-8.15-30.42-.27-1-.02-1.56.68-2.22,8.55-8.01,17.11-16.01,25.6-24.08,3.49-3.32,7.08-6.59,10.15-10.28,4.7-5.63,8.44-11.86,10.06-19.18,2.47-11.17-5.52-20.03-16.73-18.28Zm10.09,16.7c-1.07,5.36-3.9,9.84-6.94,14.25-3.91,5.66-9.32,9.84-14.19,14.54-7.24,6.97-14.61,13.82-21.93,20.71-.99.93-1.98,1.85-3.01,2.73-1.2,1.03-1.57,2.32-1.18,3.8,1.84,6.94,3.7,13.88,5.56,20.82,2.8,10.48,5.61,20.95,8.41,31.43,3.62,13.53,7.25,27.05,10.87,40.58,1.62,6.06,3.23,12.13,4.89,18.18.29,1.07.17,1.86-.6,2.72-1.66,1.86-3.18,3.85-4.83,5.88-4.96-7.93-9.84-15.73-14.71-23.53-7.24-11.59-14.47-23.18-21.7-34.78-5.93-9.51-11.87-19.02-17.79-28.53-1.48-2.38-2.68-3.13-4.56-2.5-.72.24-1.4.77-1.97,1.3-16.25,15.23-32.47,30.49-48.71,45.73-1.21,1.13-1.13,2.52-.89,3.92.7,4.26,1.46,8.52,2.19,12.77,1.62,9.56,3.24,19.11,4.83,28.67.07.41.03.97-.21,1.26-.89,1.13-1.89,2.18-3,3.42-1.99-3.19-3.9-6.24-5.8-9.3-4.87-7.8-9.73-15.6-14.62-23.39-1.13-1.8-3.31-2.16-5.12-.88-4.55,3.23-9.08,6.47-13.63,9.7-.44.31-.91.59-1.64.69.28-.48.51-.98.83-1.43,3.17-4.46,6.37-8.91,9.54-13.38,1.66-2.33,1.31-4.15-1.13-5.68-10.05-6.29-20.12-12.56-30.18-18.84-.63-.39-1.23-.83-1.97-1.33,1.14-1.03,2.12-2.02,3.22-2.86.37-.28,1.03-.35,1.52-.27,8.17,1.35,16.34,2.75,24.51,4.13,5.75.97,11.5,1.93,17.24,2.91,1.63.28,2.85-.26,4-1.49,10.12-10.84,20.3-21.64,30.46-32.45,4.89-5.2,9.77-10.4,14.65-15.6,2.41-2.57,2.13-4.65-.84-6.5-10.19-6.36-20.38-12.72-30.57-19.08-12.49-7.79-24.98-15.58-37.48-23.37-5.84-3.64-11.68-7.29-17.52-10.95-.46-.29-.89-.61-1.49-1.02,2.28-1.85,4.43-3.65,6.65-5.36.34-.26,1.04-.21,1.52-.09,9.13,2.41,18.24,4.85,27.36,7.29,8.97,2.4,17.93,4.81,26.89,7.22,9.46,2.54,18.92,5.07,28.38,7.6,9.56,2.56,19.12,5.12,28.68,7.68,1.5.4,2.75.02,3.82-1.12,7.02-7.48,14.06-14.94,21.09-22.42,3.89-4.14,7.58-8.49,11.71-12.37,5.57-5.23,11.76-9.64,19.46-11.25,1.44-.3,3.04-.35,4.48-.05,4.4.91,6.46,4.79,5.44,9.86Z"/></g></svg>