<svg width="159" height="51" viewBox="0 0 159 51" fill="none" xmlns="http://www.w3.org/2000/svg">
<g id="Logo">
<g id="Group">
<g id="Group_2">
<path id="Vector" d="M158.356 0H111.935V4.12807H158.356V0Z" fill="black"/>
<path id="Vector_2" d="M158.356 46.4104H111.935V50.5385H158.356V46.4104Z" fill="black"/>
<path id="Vector_3" d="M0 21.8719C0 11.7748 6.84472 3.68604 17.3434 3.68604C24.9086 3.68604 29.1287 7.75832 30.9299 10.0455L25.063 16.4608C23.8793 14.9546 21.8208 12.779 17.8066 12.779C12.9175 12.779 9.62378 16.6839 9.62378 21.8161C9.62378 27.0599 13.0719 30.9648 18.1154 30.9648C21.7178 30.9648 23.622 29.9049 24.291 29.2913V27.3388H19.0932V19.1942H32.7312V34.6466C29.2831 37.2685 25.2174 40.1135 17.3434 40.1135C6.84472 40.1135 0 32.0247 0 21.8719Z" fill="black"/>
<path id="Vector_4" d="M43.6418 34.0311L42.0464 39.6096H34.3782L43.6418 10.5457H51.6702L60.9337 39.6096H53.2656L51.6702 34.0311H43.6418ZM47.656 19.0808L45.443 27.4485H49.8689L47.656 19.0808Z" fill="black"/>
<path id="Vector_5" d="M63.3011 10.5457H72.7705C79.4093 10.5457 82.6001 14.0044 82.6001 19.6945C82.6001 22.8184 81.365 25.775 79.1006 27.3928L85.2248 39.6096H76.8361L72.3073 29.3452H70.9178V39.6096H63.3011V10.5457ZM72.2044 22.5953C73.9027 22.5953 74.829 21.4796 74.829 19.9734C74.829 18.3556 73.9027 17.4631 72.2044 17.4631H70.9178V22.5953H72.2044Z" fill="black"/>
<path id="Vector_6" d="M100.509 9.98376C103.7 9.98376 106.685 11.0437 108.641 12.4941L106.531 19.6903C105.244 18.5746 103.443 17.5147 100.921 17.5147C96.8555 17.5147 94.1279 20.7502 94.1279 24.9899C94.1279 29.2853 96.8555 32.5208 100.921 32.5208C103.443 32.5208 105.296 31.4609 106.531 30.3452L108.641 37.5415C106.685 38.9919 103.752 40.0518 100.509 40.0518C91.812 40.0518 86.151 33.3576 86.151 24.9341C86.151 16.6779 91.812 9.98376 100.509 9.98376Z" fill="black"/>
<path id="Vector_7" d="M119.447 10.5457H111.831V39.6096H119.447V10.5457Z" fill="black"/>
<path id="Vector_8" d="M131.131 34.0311L129.535 39.6096H121.867L131.131 10.5457H139.159L148.423 39.6096H140.755L139.159 34.0311H131.131ZM135.145 19.0808L132.932 27.4485H137.358L135.145 19.0808Z" fill="black"/>
<path id="Vector_9" d="M153.877 30.9017C156.347 30.9017 158.2 32.9657 158.2 35.5318C158.2 38.0422 156.347 40.1062 153.877 40.1062C151.407 40.1062 149.554 38.0422 149.554 35.5318C149.554 32.9657 151.407 30.9017 153.877 30.9017Z" fill="black"/>
</g>
</g>
</g>
</svg>
