<?xml version="1.0" encoding="UTF-8"?><svg id="Capa_2" xmlns="http://www.w3.org/2000/svg" viewBox="0 0 116.34 74.56"><defs><style>.cls-1{stroke-width:0px;}</style></defs><g id="Capa_1-2"><path class="cls-1" d="m116.34,35.61c.03-2.14-1.09-3.32-1.9-4.19l-.18-.19c-1.11-1.2-2.24-2.38-3.38-3.56-2.7-2.82-5.5-5.73-7.9-8.8-4.35-5.59-9.72-7.77-16.42-6.67-.32.05-.73.04-1.16.02V2c0-1.1-.9-2-2-2H2C.9,0,0,.9,0,2v60.45c0,1.1.9,2,2,2h9.71c1.1,0,2-.9,2-2s-.9-2-2-2h-7.71V4h77.41v44.52c0,1.1.9,2,2,2s2-.9,2-2v-5.96h26.87c-.02,4.24-.01,8.51,0,12.93,0,1.64,0,3.29,0,4.96h-7.96c-1.1,0-2,.9-2,2s.9,2,2,2h9.96c1.1,0,2-.9,2-2,0-2.35,0-4.67,0-6.96-.01-6.85-.02-13.32.06-19.88Zm-30.93,2.95v-22.34c.56.02,1.16.03,1.81-.08,5.27-.86,9.16.74,12.62,5.18,2.52,3.24,5.39,6.23,8.17,9.12,1.12,1.16,2.23,2.33,3.33,3.51l.19.21c.69.74.82.91.81,1.4-.01,1-.02,2-.03,3h-26.9Z"/><path class="cls-1" d="m88.44,50.5c-.48-.01-.95,0-1.43,0h-.61c-.08,0-.17,0-.25.02-.4-.05-.83.02-1.21.23-4.4,2.42-7.38,5.78-8.38,9.44-.13.48-.22.96-.28,1.44-.31-.7-1.01-1.19-1.82-1.19h-32.86c-1.08,0-1.96.86-1.99,1.94-.04-1.96-.62-3.93-1.74-5.9-2.76-4.85-7.14-6.84-13-5.91-2.94.47-6.89,2.27-9.04,8.21-.25.7-.49,1.41-.72,2.12l-.3.91c-.26.77-.02,1.59.55,2.11,1.17,5.6,4.93,9.93,9.1,10.41.91.1,1.87.18,2.86.18,3.5,0,7.27-.95,9.99-4.96,1.57-2.31,2.33-4.67,2.31-7.04.03,1.08.91,1.94,1.99,1.94h32.86c.75,0,1.39-.41,1.73-1.02.07,1.72.58,3.42,1.52,5.01,2.25,3.82,6.69,6.12,11.1,6.12,1.47,0,2.93-.26,4.31-.8,5.53-2.17,8.37-7.73,7.21-14.16-.92-5.13-5.92-8.96-11.88-9.11Zm-54.47,16.81c-1.82,2.69-4.46,3.58-9.08,3.05-2.47-.28-5.04-3.76-5.73-7.75-.04-.22-.11-.43-.21-.62.2-.62.4-1.23.62-1.84,1.21-3.34,3.14-5.18,5.91-5.62,4.16-.66,6.99.59,8.9,3.94,1.74,3.06,1.61,5.87-.4,8.85Zm57.67,2.73c-3.68,1.45-8.48-.22-10.49-3.63-.98-1.66-1.23-3.4-.74-5.16.69-2.5,2.82-4.89,6.02-6.75h.61c.43,0,.87,0,1.3,0,4.01.1,7.46,2.6,8.04,5.81.81,4.53-1,8.26-4.74,9.73Z"/></g></svg>