<?xml version="1.0" encoding="UTF-8"?><svg id="Capa_2" xmlns="http://www.w3.org/2000/svg" viewBox="0 0 66.95 48.7"><defs><style>.cls-1{fill:#454cf5;}</style></defs><g id="Capa_1-2"><path class="cls-1" d="m66.31.22c-.45-.34-1.46-.29-1.86.14-.72.76-1.42,1.55-2.11,2.33-1.02,1.15-2.02,2.32-3.04,3.47-.68.77-1.38,1.53-2.06,2.3-1.37,1.55-2.74,3.11-4.11,4.66-.63.72-1.28,1.42-1.91,2.14-1.36,1.54-2.71,3.08-4.07,4.62-.64.73-1.3,1.45-1.95,2.18-1.33,1.51-2.66,3.03-3.99,4.54-.68.77-1.38,1.53-2.06,2.3-.91,1.01-1.79,2.04-2.72,3.03-.4.43-1.13.38-1.58-.02-.76-.69-1.53-1.37-2.29-2.06.35-.56.69-1.12,1.04-1.68,1.67-2.68,3.36-5.35,5.03-8.04,1.86-2.99,3.69-6,5.54-8.99,1.86-3.01,3.74-6.01,5.62-9.01.46-.73.15-1.48-.43-1.91-.45-.34-1.46-.29-1.86.14-.72.76-1.42,1.55-2.11,2.33-1.02,1.15-2.02,2.32-3.04,3.47-.68.77-1.38,1.53-2.06,2.3-1.37,1.55-2.74,3.11-4.11,4.66-.63.72-1.28,1.42-1.91,2.14-1.36,1.54-2.71,3.08-4.07,4.62-.64.73-1.3,1.45-1.95,2.18-.62.71-1.24,1.41-1.86,2.12-.11-.1-.22-.2-.33-.3-1.16-1.09-2.52-1.69-4.1-1.67-1.19.02-2.31.43-3.2,1.25-1.95,1.79-2.43,4.57-.88,6.82.43.62.91,1.21,1.4,1.79-.41.25-.99.18-1.37-.16-1.05-.95-2.11-1.88-3.16-2.83-1.89-1.73-3.77-3.45-5.64-5.2-1.16-1.09-2.52-1.69-4.1-1.67-1.19.02-2.31.43-3.2,1.25-1.95,1.79-2.43,4.57-.88,6.82.6.87,1.3,1.66,1.97,2.48,1.06,1.3,2.12,2.6,3.18,3.9.9,1.1,1.81,2.2,2.71,3.3.91,1.12,1.81,2.24,2.72,3.36.92,1.13,1.83,2.27,2.76,3.4.97,1.18,2.17,1.95,3.41,1.98,1.74,0,2.96-.46,3.89-1.48.54-.6,1-1.29,1.43-1.98,1.03-1.63,2.04-3.26,3.06-4.89.8.99,1.6,1.98,2.41,2.98.92,1.13,1.83,2.27,2.76,3.4.97,1.18,2.17,1.95,3.41,1.98,1.74,0,2.96-.46,3.89-1.48.54-.6,1-1.29,1.43-1.98,1.71-2.7,3.4-5.41,5.09-8.13,1.85-2.98,3.68-5.96,5.53-8.94,1.67-2.68,3.36-5.35,5.03-8.04,1.86-2.99,3.69-6,5.54-8.99,1.86-3.01,3.74-6.01,5.62-9.01.46-.73.15-1.48-.43-1.91Z"/></g></svg>