<?xml version="1.0" encoding="UTF-8"?>
<svg id="Capa_1" data-name="Capa 1" xmlns="http://www.w3.org/2000/svg" version="1.1" viewBox="0 0 33.7 241">
  <defs>
    <style>
      .cls-1 {
        fill: #000;
        stroke-width: 0px;
      }
    </style>
  </defs>
  <g>
    <path class="cls-1" d="M23.1,225.7H7.8v-4.9c0-.7,0-1.4.3-2.1s.4-1.2.7-1.7.8-.9,1.3-1.1c.5-.3,1.1-.4,1.9-.4.8,0,1.4.2,1.9.6.5.4,1,1,1.2,1.7.1-.4.3-.8.5-1.1.2-.3.5-.6.8-.8.3-.2.6-.4,1-.5.4-.1.8-.2,1.2-.2.7,0,1.4.1,1.9.4.6.3,1,.6,1.4,1.1.4.5.7,1,.8,1.7.2.6.3,1.3.3,2.1v5.2ZM14.3,223.2v-2.4c0-.4,0-.7-.2-1.1,0-.3-.2-.6-.4-.8s-.4-.4-.7-.6c-.3-.1-.6-.2-.9-.2s-.7,0-1,.2c-.3.1-.5.3-.7.6-.2.2-.3.5-.4.9,0,.3-.1.7-.1,1.1v2.4h4.4ZM16.2,223.2h4.9v-2.8c0-.4,0-.8-.2-1.1-.1-.3-.3-.6-.5-.9s-.5-.4-.7-.6c-.3-.1-.6-.2-1-.2s-.7,0-1,.2-.6.3-.8.5c-.2.2-.4.5-.5.8-.1.3-.2.7-.2,1.1v2.9Z"/>
    <path class="cls-1" d="M23.3,205.7c0,.8-.1,1.6-.4,2.3-.3.7-.7,1.3-1.2,1.8-.5.5-1.1.9-1.7,1.1-.7.3-1.4.4-2.2.4h-.4c-.9,0-1.7-.1-2.4-.4-.7-.3-1.3-.7-1.8-1.2-.5-.5-.9-1.1-1.2-1.7-.3-.6-.4-1.3-.4-2s.1-1.6.4-2.2c.3-.6.7-1.2,1.2-1.6.5-.4,1.1-.7,1.8-1,.7-.2,1.4-.3,2.3-.3h1.1v7.9c.4,0,.9-.2,1.2-.3.4-.2.7-.4,1-.7.3-.3.5-.6.7-1,.2-.4.2-.8.2-1.3s-.1-1.2-.4-1.8c-.3-.5-.6-1-1-1.3l1.3-1.4c.3.2.5.4.8.7.3.3.5.6.7,1,.2.4.4.8.5,1.3s.2,1,.2,1.6ZM13.6,206c0,.4,0,.7.2,1,.1.3.3.6.6.8s.5.4.9.6c.3.2.7.3,1.2.4v-5.3h-.2c-.3,0-.7,0-1,.2s-.6.3-.8.5-.4.5-.6.8-.2.7-.2,1.1Z"/>
    <path class="cls-1" d="M18.6,191.9l1.4-.4-8.2-3.2v-2.8l13.1,5.8c.3.1.6.3.9.5s.6.5.9.8.5.7.7,1.1c.2.4.3.9.3,1.5s0,.5,0,.7c0,.2,0,.4-.1.6l-2-.4s0-.1,0-.2c0,0,0-.2,0-.3,0,0,0-.2,0-.3,0,0,0-.1,0-.2,0-.2,0-.5-.2-.7s-.3-.4-.5-.5c-.2-.1-.4-.3-.5-.4-.2,0-.3-.2-.4-.2l-1.4-.7-10.8,4.8v-2.8l6.8-2.7Z"/>
    <path class="cls-1" d="M17.3,182.2c-.8,0-1.6-.1-2.3-.4-.7-.2-1.3-.6-1.8-1-.5-.5-.9-1-1.2-1.7-.3-.7-.4-1.4-.4-2.2s.1-1.6.4-2.2c.3-.7.7-1.2,1.2-1.7.5-.5,1.1-.8,1.8-1s1.5-.4,2.3-.4h.2c.8,0,1.6.1,2.3.4.7.2,1.3.6,1.8,1,.5.5.9,1,1.2,1.7.3.7.4,1.4.4,2.2s-.1,1.6-.4,2.2c-.3.7-.7,1.2-1.2,1.7-.5.5-1.1.8-1.8,1-.7.2-1.5.4-2.3.4h-.2ZM17.6,179.7c.5,0,1,0,1.5-.2s.9-.3,1.2-.5c.3-.2.6-.5.8-.9.2-.4.3-.8.3-1.2s0-.9-.3-1.2c-.2-.3-.5-.6-.8-.9-.3-.2-.7-.4-1.2-.5-.5-.1-.9-.2-1.5-.2h-.2c-.5,0-1,0-1.4.2-.5.1-.9.3-1.2.5-.3.2-.6.5-.8.9s-.3.8-.3,1.2.1.9.3,1.2c.2.4.5.6.8.9.3.2.7.4,1.2.5s.9.2,1.4.2h.2Z"/>
    <path class="cls-1" d="M11.8,164.8l1.6-.2c-.6-.4-1-.9-1.3-1.5s-.5-1.2-.5-1.9,0-1.1.3-1.6.4-.9.8-1.2c.4-.3.8-.6,1.4-.8.6-.2,1.2-.3,2-.3h7.1v2.5h-7.1c-.5,0-.9,0-1.2.2s-.6.3-.8.5c-.2.2-.3.4-.4.7,0,.3-.1.6-.1,1,0,.6.1,1,.4,1.4.2.4.6.7,1,1h8.2v2.5h-11.4v-2.3Z"/>
    <path class="cls-1" d="M17.4,152.8c-.9,0-1.6-.1-2.4-.3-.7-.2-1.3-.5-1.8-.9-.5-.4-.9-.9-1.2-1.4-.3-.6-.4-1.2-.4-1.9s.1-1.2.3-1.6c.2-.5.5-.9.9-1.2h-5.8v-2.5h16.1v2.3h-1.2c.4.5.8.9,1,1.4.2.5.4,1.1.4,1.7s-.1,1.3-.4,1.9c-.3.6-.7,1-1.2,1.4s-1.1.7-1.8.9c-.7.2-1.5.3-2.3.3h-.2ZM17.6,150.3c.5,0,1,0,1.4-.1.4,0,.8-.3,1.2-.5.3-.2.6-.5.8-.8.2-.3.3-.7.3-1.2s-.1-1-.4-1.4-.6-.7-1-.9h-4.9c-.4.2-.7.5-1,.9-.2.4-.4.8-.4,1.4s0,.9.3,1.2c.2.3.5.6.8.8.3.2.7.4,1.2.5s.9.2,1.4.2h.2Z"/>
    <path class="cls-1" d="M17.2,118.2v2.6h6v2.5H7.8v-4.8c0-.8.1-1.5.3-2.2.2-.7.5-1.2.9-1.7.4-.5.9-.9,1.4-1.1.6-.3,1.2-.4,2-.4s1,0,1.4.2c.4.1.8.3,1.2.6.3.2.6.5.9.9.3.3.5.7.7,1.1l6.4-3.2h.1v2.7l-6,2.9ZM15.1,120.7v-2.3c0-.4,0-.8-.2-1.2s-.3-.7-.5-.9c-.2-.3-.5-.5-.8-.6-.3-.1-.7-.2-1.1-.2s-.8,0-1.1.2c-.3.1-.6.3-.8.6s-.4.6-.5.9c-.1.4-.2.8-.2,1.2v2.3h5.3Z"/>
    <path class="cls-1" d="M23.3,103.3c0,.8-.1,1.6-.4,2.3-.3.7-.7,1.3-1.2,1.8s-1.1.9-1.7,1.1-1.4.4-2.2.4h-.4c-.9,0-1.7-.1-2.4-.4s-1.3-.7-1.8-1.2c-.5-.5-.9-1.1-1.2-1.7s-.4-1.3-.4-2,.1-1.6.4-2.2c.3-.6.7-1.2,1.2-1.6.5-.4,1.1-.7,1.8-1,.7-.2,1.4-.3,2.3-.3h1.1v7.9c.4,0,.9-.2,1.2-.3.4-.2.7-.4,1-.7.3-.3.5-.6.7-1,.2-.4.2-.8.2-1.3s-.1-1.2-.4-1.8c-.3-.5-.6-1-1-1.3l1.3-1.4c.3.2.5.4.8.7.3.3.5.6.7,1,.2.4.4.8.5,1.3.1.5.2,1,.2,1.6ZM13.6,103.6c0,.4,0,.7.2,1,.1.3.3.6.6.8.2.2.5.4.9.6s.7.3,1.2.4v-5.3h-.2c-.3,0-.7,0-1,.2-.3.1-.6.3-.8.5s-.4.5-.6.8c-.1.3-.2.7-.2,1.1Z"/>
    <path class="cls-1" d="M11.8,91.7l1.6-.2c-.6-.4-1-.9-1.3-1.5s-.5-1.2-.5-1.9,0-1.1.3-1.6c.2-.5.4-.9.8-1.2.4-.3.8-.6,1.4-.8.6-.2,1.2-.3,2-.3h7.1v2.5h-7.1c-.5,0-.9,0-1.2.2-.3.1-.6.3-.8.5-.2.2-.3.4-.4.7,0,.3-.1.6-.1,1,0,.6.1,1,.4,1.4s.6.7,1,1h8.2v2.5h-11.4v-2.3Z"/>
    <path class="cls-1" d="M9,74.3h2.8v-4.3h1.9v4.3h5.5c.4,0,.8,0,1.1-.2.3-.1.5-.2.7-.4s.3-.4.4-.6c0-.2.1-.5.1-.8s0-.4,0-.7c0-.2,0-.5,0-.7,0-.2,0-.4-.1-.6,0-.2,0-.3-.1-.5l1.7-.3c.1.2.2.4.3.7,0,.3.2.5.2.8,0,.3,0,.6.1.9,0,.3,0,.6,0,1,0,.6,0,1.1-.2,1.6-.2.5-.4.9-.7,1.2-.3.3-.8.6-1.3.8-.5.2-1.1.3-1.9.3h-5.6v2.8h-1.9v-2.8h-2.8v-2.5Z"/>
    <path class="cls-1" d="M23.1,57.5c-.1,0-.3.1-.5.2s-.4,0-.6.1c.2.2.4.4.5.6.2.2.3.5.4.7.1.3.2.6.3.9s.1.6.1,1c0,.6,0,1.1-.3,1.6s-.4.9-.7,1.2c-.3.3-.7.6-1.1.8s-.9.3-1.3.3c-1.2,0-2.1-.5-2.8-1.4s-1-2.2-1-3.9v-1.8h-.7c-.6,0-1.1.2-1.4.6-.4.4-.5,1-.5,1.7s0,.6.1.9.2.5.3.6c.1.2.3.3.5.4s.4.1.6.1v2.5c-.4,0-.9-.1-1.3-.3-.4-.2-.8-.5-1.1-.9-.3-.4-.6-.9-.8-1.5-.2-.6-.3-1.2-.3-2s0-1.3.2-1.9c.2-.6.4-1.1.7-1.5.3-.4.7-.7,1.2-1,.5-.2,1.1-.4,1.7-.4h5.1c.5,0,1,0,1.4-.1.4,0,.8-.2,1.1-.3h.2v2.6ZM21.3,60.5c0-.3,0-.6-.1-.9,0-.3-.2-.5-.3-.8-.1-.2-.3-.4-.4-.6s-.3-.3-.5-.4h-2.1v1.6c0,1,.2,1.8.5,2.3.3.5.8.7,1.4.7s.4,0,.6-.1c.2,0,.4-.2.5-.4.1-.2.3-.4.3-.6,0-.2.1-.5.1-.9Z"/>
    <path class="cls-1" d="M7,49.6v-6.1h14.1v-3.5h2.1v9.6h-2.1v-3.6h-12v3.6h-2.1Z"/>
  </g>
  <circle class="cls-1" cx="16.8" cy="15.3" r="5.6"/>
</svg>