<svg width="27" height="33" viewBox="0 0 27 33" fill="none" xmlns="http://www.w3.org/2000/svg">
<g clip-path="url(#clip0_1_4)">
<path d="M4.85 11.7C4.85 11.7 4.88 11.7 4.89 11.7L5.81 11.66C6.45 11.63 7.1 11.59 7.75 11.59C10.46 11.58 13.16 11.59 15.87 11.59H18.82C19.37 11.59 19.82 11.14 19.82 10.59C19.82 10.04 19.37 9.59 18.82 9.59H15.87C13.16 9.59 10.45 9.59 7.75 9.59C7.07 9.59 6.4 9.63 5.72 9.66L4.82 9.7C4.27 9.72 3.84 10.19 3.86 10.74C3.88 11.28 4.33 11.7 4.86 11.7H4.85Z" fill="black"/>
<path d="M18.82 18.3H15.78C13.1 18.3 10.42 18.3 7.74 18.3C7.06 18.3 6.38 18.34 5.71 18.37L4.82 18.41C4.27 18.43 3.84 18.9 3.86 19.45C3.88 19.99 4.33 20.41 4.86 20.41C4.87 20.41 4.89 20.41 4.9 20.41L5.82 20.37C6.47 20.34 7.11 20.3 7.76 20.3C10.44 20.29 13.11 20.3 15.79 20.3H18.83C19.38 20.3 19.83 19.85 19.83 19.3C19.83 18.75 19.38 18.3 18.83 18.3H18.82Z" fill="black"/>
<path d="M5.03 15.8H5.05C5.22 15.87 5.48 15.97 5.81 15.97H5.83C9.09 15.93 12.4 15.93 15.61 15.93H18.21C18.76 15.93 19.21 15.48 19.21 14.93C19.21 14.38 18.76 13.93 18.21 13.93H15.61C12.4 13.93 9.07 13.93 5.86 13.97C5.82 13.97 5.79 13.94 5.75 13.93C5.5 13.84 5.05 13.67 4.5 13.87C3.98 14.07 3.72 14.64 3.92 15.16C4.09 15.62 4.57 15.87 5.03 15.79V15.8Z" fill="black"/>
<path d="M18.64 22.79C16.24 22.62 13.82 22.65 11.47 22.67C10.07 22.68 8.67 22.69 7.27 22.67C6.96 22.67 6.62 22.69 6.3 22.73C5.85 22.77 5.46 22.81 5.12 22.72C4.59 22.57 4.03 22.87 3.88 23.4C3.73 23.93 4.03 24.48 4.56 24.64C5.26 24.84 5.91 24.78 6.49 24.72C6.74 24.7 6.98 24.66 7.23 24.67C8.65 24.7 10.06 24.68 11.48 24.67C13.78 24.65 16.17 24.63 18.49 24.79C18.51 24.79 18.54 24.79 18.56 24.79C19.08 24.79 19.52 24.39 19.56 23.86C19.6 23.31 19.18 22.83 18.63 22.79H18.64Z" fill="black"/>
<path d="M26.31 17.36C26.31 14.95 26.29 12.55 26.27 10.14L26.25 6.69C26.25 6.14 25.75 5.69 25.24 5.7C24.69 5.7 24.24 6.15 24.25 6.71L24.27 10.16C24.29 12.56 24.3 14.97 24.31 17.37C24.31 20.7 24.31 24.03 24.31 27.35V30.79H5.21C5.01 30.79 4.81 30.78 4.61 30.76L4.47 30.52C4.43 30.45 4.4 30.4 4.37 30.34C4.42 30.34 4.46 30.34 4.51 30.34C4.63 30.34 4.75 30.35 4.86 30.35H20.15C21.33 30.35 22.19 30.06 22.78 29.47C23.4 28.85 23.68 27.96 23.67 26.68C23.66 24.25 23.64 21.82 23.62 19.39C23.6 16.69 23.58 13.99 23.56 11.29C23.56 10.76 23.59 10.23 23.62 9.7C23.68 8.64 23.74 7.54 23.56 6.44C23.57 6.36 23.7 6.17 23.76 6.06C23.76 6.06 23.81 5.97 23.82 5.97C23.97 5.74 24.01 5.46 23.94 5.19C23.16 2.1 20.46 2.32 19.58 2.39C19.46 2.39 19.34 2.39 19.23 2.4C19.23 2.29 19.21 2.18 19.21 2.07V2.02C19.62 1.85 19.88 1.42 19.81 0.970003C19.74 0.420003 19.24 0.0400028 18.69 0.110003C17.71 0.240003 17.21 0.900003 17.21 2.07C17.21 2.19 17.23 2.3 17.23 2.42C17.21 2.42 17.19 2.42 17.16 2.42C16.44 2.41 15.71 2.4 14.97 2.44C14.95 2.02 14.93 1.59 14.9 1.18L14.88 0.920003C14.85 0.370003 14.37 -0.0399972 13.82 -0.0199972C13.27 0.0100028 12.85 0.490003 12.88 1.04V1.3C12.92 1.67 12.94 2.04 12.96 2.41C12.2 2.41 11.45 2.41 10.69 2.41C10.67 2.41 10.66 2.41 10.64 2.41L10.67 1.5C10.69 0.950003 10.25 0.490003 9.7 0.470003C9.14 0.450003 8.69 0.890003 8.67 1.44L8.64 2.4C7.86 2.4 7.08 2.42 6.3 2.46C6.28 2.03 6.26 1.6 6.23 1.18L6.21 0.920003C6.18 0.390003 5.7 -0.0199972 5.16 2.81818e-06C4.61 0.0300028 4.19 0.510003 4.22 1.06V1.32C4.26 1.7 4.28 2.08 4.3 2.46H4.23C3.56 2.48 2.9 2.51 2.24 2.57C0.9 2.68 0.11 3.51 0.11 4.76C0.11 4.97 0.08 5.17 0.06 5.38C0.03 5.66 0 5.94 0 6.21C0 13.16 0 20.11 0 27.06C0 28.29 0.36 29.22 1.08 29.81C1.4 30.08 1.79 30.25 2.22 30.35C2.32 30.86 2.58 31.26 2.77 31.58L2.91 31.8C2.95 31.87 3.01 31.94 3.07 32C3.19 32.4 3.53 32.7 3.97 32.72L4.33 32.74C4.63 32.76 4.92 32.78 5.22 32.78H20.3H25.33C25.88 32.78 26.33 32.33 26.33 31.78V27.34C26.33 24.01 26.33 20.68 26.33 17.35L26.31 17.36ZM2.01 6.21C2.01 6 2.04 5.8 2.06 5.59C2.09 5.31 2.12 5.03 2.12 4.75C2.12 4.67 2.13 4.62 2.12 4.61C2.14 4.6 2.22 4.56 2.42 4.54C3.04 4.48 3.67 4.46 4.29 4.44H4.32C4.31 4.94 4.28 5.45 4.22 5.95C4.15 6.5 4.54 7 5.09 7.07C5.13 7.07 5.17 7.07 5.22 7.07C5.72 7.07 6.15 6.7 6.21 6.2C6.28 5.62 6.31 5.04 6.32 4.46C7.07 4.42 7.82 4.4 8.58 4.39L8.55 5.43C8.53 5.98 8.97 6.44 9.52 6.46C9.52 6.46 9.54 6.46 9.55 6.46C10.09 6.46 10.53 6.03 10.55 5.49L10.58 4.4C10.58 4.4 10.64 4.4 10.67 4.4C11.44 4.4 12.22 4.4 13 4.4C12.99 4.92 12.96 5.43 12.9 5.94C12.83 6.49 13.22 6.99 13.77 7.06C13.81 7.06 13.85 7.06 13.9 7.06C14.4 7.06 14.83 6.69 14.89 6.19C14.96 5.61 14.99 5.03 15 4.45C15.7 4.41 16.4 4.4 17.14 4.41C17.21 4.41 17.27 4.41 17.34 4.41C17.32 4.68 17.29 4.95 17.18 5.19C16.97 5.7 17.21 6.28 17.72 6.49C17.84 6.54 17.97 6.57 18.1 6.57C18.49 6.57 18.87 6.34 19.02 5.95C19.24 5.41 19.32 4.89 19.33 4.38C19.46 4.38 19.6 4.38 19.73 4.36C21.1 4.25 21.61 4.58 21.88 5.28C21.68 5.63 21.49 6.13 21.58 6.69C21.73 7.61 21.67 8.56 21.62 9.55C21.59 10.12 21.55 10.69 21.56 11.26C21.57 13.96 21.6 16.66 21.62 19.37C21.64 21.8 21.66 24.23 21.67 26.66C21.67 27.14 21.62 27.77 21.36 28.03C21.17 28.22 20.76 28.32 20.15 28.32H4.85C4.77 28.32 4.68 28.32 4.59 28.32C4.34 28.31 4.02 28.29 3.7 28.36C3.07 28.48 2.59 28.44 2.35 28.24C2.06 28 2 27.45 2 27.03C2 20.08 2 13.13 2 6.18L2.01 6.21Z" fill="black"/>
</g>
<defs>
<clipPath id="clip0_1_4">
<rect width="26.32" height="32.79" fill="white"/>
</clipPath>
</defs>
</svg>
