<?xml version="1.0" encoding="utf-8"?>
<!-- Generator: Adobe Illustrator 27.7.0, SVG Export Plug-In . SVG Version: 6.00 Build 0)  -->
<svg version="1.1" id="Capa_1" xmlns="http://www.w3.org/2000/svg" xmlns:xlink="http://www.w3.org/1999/xlink" x="0px" y="0px"
	 viewBox="0 0 42.7 24" style="enable-background:new 0 0 42.7 24;" xml:space="preserve">
<style type="text/css">
	.st0{fill-rule:evenodd;clip-rule:evenodd;}
</style>
<g id="Group-19" transform="translate(-0.000000, 6.000000)">
	<path id="Fill-1" class="st0" d="M39.7,14c-0.8,0.9-2.2,0.6-4.7-0.7c-1.4-0.8-3-1.8-4.6-2.9l-0.6-0.4c-1-0.7-2.1-1.4-3.1-2
		c-0.3-0.2-0.5-0.3-0.8-0.5l-0.5-0.3c-0.6-0.3-1-0.5-1.4-0.7c-0.1,0-0.2-0.1-0.3-0.1v0c-0.2-0.1-0.3-0.1-0.5-0.2l-0.1-0.1h0
		c-2.7-1.1-5.5-1.6-8.4-1.6c-2.4,0-4.7,0.4-6.9,1.1c4-3.7,9-7.1,10.8-8.1c0.8-0.4,1.7-0.7,2.8-0.7c1,0,2,0.2,2.8,0.7
		C28.4-0.1,39.3,8.2,40,12.5l0,0C40.1,13.1,40,13.6,39.7,14 M4.2,14.4c-0.5,0-0.9-0.1-1.1-0.4c-0.4-0.4-0.5-0.9-0.4-1.6
		c0-0.3,0.1-0.5,0.2-0.8c0,0,0,0,0-0.1C3,11.4,3,11.3,3.1,11.1c0-0.1,0.1-0.1,0.1-0.2c0.1-0.1,0.1-0.2,0.2-0.3l0.1-0.1c0,0,0,0,0,0
		c0.5-0.8,1.3-1.5,2.2-2c2.8-1.4,5.8-2.1,9-2.1c1.1,0,2.3,0.1,3.4,0.3c0,0-0.1,0-0.1,0.1c-0.1,0.1-0.3,0.1-0.4,0.2
		c-0.1,0-0.2,0.1-0.2,0.1c-0.1,0.1-0.3,0.2-0.5,0.2c-0.1,0-0.1,0.1-0.2,0.1c-0.2,0.1-0.4,0.2-0.6,0.3c0,0-0.1,0-0.1,0.1
		c-0.2,0.1-0.4,0.3-0.6,0.4c-0.1,0.1-0.2,0.1-0.3,0.2c-0.1,0.1-0.3,0.2-0.4,0.3c-0.1,0.1-0.2,0.1-0.3,0.2c-0.1,0.1-0.3,0.2-0.4,0.3
		c-0.1,0.1-0.2,0.1-0.3,0.2c-0.1,0.1-0.3,0.2-0.4,0.3c-0.1,0.1-0.2,0.1-0.3,0.2c-0.2,0.1-0.4,0.3-0.7,0.4C9.1,12.4,6,14.4,4.2,14.4
		 M42,12.2C41,6.5,28.4-2.5,25.1-4.3c-1.1-0.6-2.4-1-3.8-1c-1.4,0-2.7,0.3-3.8,1C15-2.8,6.8,2.8,2.8,7.9c-0.4,0.5-0.8,1-1,1.5
		L1.7,9.5c-0.6,1-0.9,1.8-1,2.6c-0.2,1.2,0.1,2.3,0.9,3.2c0.7,0.7,1.6,1.1,2.6,1.1c2.4,0,5.7-2.1,9.1-4.4c2.8-1.9,6.3-4.2,8.1-4.2
		c0.3,0,0.6,0.1,1.1,0.2l0.1,0c0.1,0,0.2,0.1,0.3,0.1l0.3,0.1c0.4,0.2,0.8,0.4,1.3,0.7C24.5,9,24.6,9,24.6,9c0,0,0.1,0,0.1,0.1
		l0.2,0.1c0.2,0.1,0.5,0.3,0.7,0.4c1,0.6,2,1.3,3,1.9l0.6,0.4c1.7,1.1,3.3,2.2,4.8,3c1.8,1,3.2,1.5,4.4,1.5c1.1,0,2-0.4,2.7-1.2
		C41.9,14.5,42.2,13.4,42,12.2"/>
	<g id="Clip-17">
	</g>
</g>
</svg>
