<svg width="19" height="20" viewBox="0 0 19 20" fill="none" xmlns="http://www.w3.org/2000/svg">
<path d="M2.3846 18.5713H17.6154V7.14274H2.3846V18.5713ZM6.53844 4.99989V1.7856C6.53844 1.68143 6.50599 1.59587 6.44109 1.52891C6.37618 1.46194 6.29325 1.42846 6.19229 1.42846H5.49998C5.39902 1.42846 5.31609 1.46194 5.25118 1.52891C5.18628 1.59587 5.15383 1.68143 5.15383 1.7856V4.99989C5.15383 5.10405 5.18628 5.18962 5.25118 5.25658C5.31609 5.32355 5.39902 5.35703 5.49998 5.35703H6.19229C6.29325 5.35703 6.37618 5.32355 6.44109 5.25658C6.50599 5.18962 6.53844 5.10405 6.53844 4.99989ZM14.8461 4.99989V1.7856C14.8461 1.68143 14.8137 1.59587 14.7488 1.52891C14.6839 1.46194 14.6009 1.42846 14.5 1.42846H13.8077C13.7067 1.42846 13.6238 1.46194 13.5589 1.52891C13.494 1.59587 13.4615 1.68143 13.4615 1.7856V4.99989C13.4615 5.10405 13.494 5.18962 13.5589 5.25658C13.6238 5.32355 13.7067 5.35703 13.8077 5.35703H14.5C14.6009 5.35703 14.6839 5.32355 14.7488 5.25658C14.8137 5.18962 14.8461 5.10405 14.8461 4.99989ZM19 4.2856V18.5713C19 18.9582 19 19.4999 19 19.9999C18.5 19.9999 17.9904 19.9999 17.6154 19.9999H2.3846C2.0096 19.9999 1.62916 19.9999 1.12916 19.9999C1.12916 19.4999 1.1291 18.9582 1.1291 18.5713L0.999984 4.2856C0.999984 3.8987 1 2.99989 0.96521 2.85703C1.35417 2.85703 2.0096 2.85703 2.3846 2.85703H3.76921V1.7856C3.76921 1.29453 3.76921 0.402195 3.76921 -0.000152066C4.26921 -0.000246361 5.02402 -0.000112846 5.49998 -0.000112846H6.19229C6.66825 -0.000112846 7.42306 -0.000290237 7.92306 -0.000152066C7.92306 0.499848 7.92306 1.29453 7.92306 1.7856V2.85703H12.0769V1.69325C12.0769 1.20218 12.0769 0.56411 12.0769 -0.000244141C12.5 0 13.3317 -0.000112846 13.8077 -0.000112846L14.7488 -0.000244141C15.2247 -0.000244141 15.5 0 16.2308 2.563e-05C16.2308 0.524151 16.2308 1.29453 16.2308 1.7856V2.85703H17.6154C17.9904 2.85703 18.5 2.85703 19 2.85703C19 3.35703 19 3.8987 19 4.2856Z" fill="black"/>
</svg>
