<svg width="32" height="32" viewBox="0 0 32 32" fill="none" xmlns="http://www.w3.org/2000/svg">
<path d="M30.6667 1.33333V30.6667H1.33333V1.33333H30.6667ZM32 0H0V32H32V0Z" fill="black"/>
<path d="M10.6665 7.33325H26.6665V8.66659H10.6665V7.33325ZM10.6665 15.3333H26.6665V16.6666H10.6665V15.3333ZM10.6665 23.3333H26.6665V24.6666H10.6665V23.3333Z" fill="black"/>
<path d="M6.66683 9.33341C7.40321 9.33341 8.00016 8.73646 8.00016 8.00008C8.00016 7.2637 7.40321 6.66675 6.66683 6.66675C5.93045 6.66675 5.3335 7.2637 5.3335 8.00008C5.3335 8.73646 5.93045 9.33341 6.66683 9.33341Z" fill="black"/>
<path d="M6.66683 17.3334C7.40321 17.3334 8.00016 16.7365 8.00016 16.0001C8.00016 15.2637 7.40321 14.6667 6.66683 14.6667C5.93045 14.6667 5.3335 15.2637 5.3335 16.0001C5.3335 16.7365 5.93045 17.3334 6.66683 17.3334Z" fill="black"/>
<path d="M6.66683 25.3334C7.40321 25.3334 8.00016 24.7365 8.00016 24.0001C8.00016 23.2637 7.40321 22.6667 6.66683 22.6667C5.93045 22.6667 5.3335 23.2637 5.3335 24.0001C5.3335 24.7365 5.93045 25.3334 6.66683 25.3334Z" fill="black"/>
</svg>
