<svg width="170" height="193" viewBox="0 0 170 193" fill="none" xmlns="http://www.w3.org/2000/svg">
<path d="M169.296 38.2549C168.826 32.1955 164.646 26.371 159.15 24.5391C156.425 23.6466 153.466 23.1299 150.6 23.036C142.521 22.8481 134.488 22.989 126.408 22.989C125.798 22.989 125.234 22.989 124.764 22.989C124.576 20.3586 124.388 18.057 124.2 15.7084C123.825 10.2597 121.147 6.12613 116.637 3.30781C114.712 2.08655 112.457 1.42894 110.343 0.489502C93.338 0.489502 76.3332 0.489502 59.3283 0.489502C58.8586 0.724361 58.4358 1.10014 57.966 1.24105C50.7789 3.02598 45.2359 10.5885 45.7996 17.9161C45.9405 19.5601 45.7996 21.2511 45.7996 23.036C45.001 23.036 44.3903 23.036 43.7797 23.036C35.4651 23.036 27.1506 22.989 18.8361 23.036C13.434 23.083 8.64258 24.5391 4.93158 28.7666C1.40847 32.7592 -0.000768604 37.5033 0.891751 42.5293C1.97217 48.6826 5.49528 53.2859 11.508 55.6814C11.8838 55.8224 12.3536 56.433 12.3536 56.8557C12.7764 61.1302 13.1522 65.4046 13.528 69.726C13.9038 74.3293 14.2795 78.9325 14.6553 83.5358C15.1721 89.5951 15.6418 95.7015 16.1585 101.761C16.5343 106.176 16.9101 110.592 17.2859 115.007C17.8027 121.207 18.3194 127.407 18.7891 133.561C19.1649 138.023 19.5407 142.485 19.9165 146.995C20.2923 151.551 20.6681 156.06 21.0439 160.617C21.4197 165.079 21.9834 169.541 22.1243 174.051C22.2183 179.077 23.5336 183.539 27.0097 187.297C29.8752 190.397 33.3983 192.557 37.579 192.604C67.8777 192.745 98.2234 192.651 128.522 192.745C133.548 192.745 138.105 191.806 142.004 188.565C144.822 186.216 146.842 183.21 147.406 179.64C148.204 174.661 148.533 169.635 148.956 164.609C149.379 160.053 149.708 155.544 150.083 150.987C150.459 146.431 150.835 141.922 151.211 137.366C151.728 131.212 152.197 125.106 152.714 118.953C153.09 114.584 153.513 110.263 153.841 105.894C154.264 100.446 154.593 94.9499 154.969 89.4542C155.11 87.6693 155.204 85.8844 155.345 84.0994C155.814 79.0265 156.378 73.9535 156.801 68.8805C157.13 65.0288 157.271 61.1302 157.599 57.2785C157.646 56.7148 158.351 56.1042 158.868 55.7284C160.841 54.3193 163.189 53.2859 164.787 51.5479C168.357 47.7902 169.672 43.3278 169.296 38.2549ZM57.0735 16.2251C57.2144 13.8295 59.7511 11.7158 62.6635 11.7158C77.4136 11.6688 92.1636 11.6218 106.914 11.7627C111.141 11.8097 112.926 13.5947 113.349 17.9161C113.49 19.5131 113.396 21.1571 113.396 22.8481C94.6533 22.8481 76.0043 22.8481 57.1205 22.8481C57.0735 20.5935 56.9796 18.3858 57.0735 16.2251ZM145.621 65.2637C145.433 66.9077 145.339 68.5517 145.198 70.2427C144.916 74.1414 144.775 77.9931 144.446 81.8917C144.024 86.9647 143.46 92.0377 142.99 97.0637C142.802 98.8486 142.708 100.634 142.614 102.418C142.239 107.773 141.91 113.128 141.487 118.483C141.158 122.945 140.735 127.454 140.36 131.917C139.843 137.976 139.373 144.036 138.857 150.095C138.481 154.557 138.105 159.02 137.729 163.529C137.353 167.803 137.024 172.078 136.602 176.399C136.32 179.217 133.22 181.331 130.918 181.331C121.053 181.284 111.141 181.331 101.277 181.331C80.8897 181.331 60.5027 181.237 40.1626 181.425C36.2167 181.472 33.3513 178.419 33.3513 174.52C33.3513 170.809 32.6467 167.052 32.3178 163.341C32.1769 161.697 32.036 160.006 31.942 158.362C31.7072 154.463 31.5193 150.612 31.1904 146.713C30.7677 141.499 30.157 136.332 29.7342 131.118C29.4054 127.267 29.3115 123.368 28.9826 119.516C28.5599 114.302 27.9492 109.135 27.4794 103.922C27.1506 100.352 27.0097 96.7818 26.6809 93.212C26.352 89.4072 25.9293 85.6495 25.6005 81.8448C25.4595 80.1068 25.3656 78.4158 25.2247 76.6779C24.7079 70.6655 24.2382 64.6531 23.7215 58.6407C23.6745 58.077 23.7215 57.5133 23.7215 56.7618C64.6834 56.7618 105.457 56.7618 146.607 56.7618C146.232 59.6741 145.903 62.4924 145.621 65.2637ZM157.787 42.0596C157.224 43.9385 154.781 45.4416 152.714 45.4416C130.166 45.4416 107.571 45.4416 85.0235 45.4416C62.6635 45.4416 40.2566 45.4416 17.8966 45.4416C14.5144 45.4416 12.2127 43.2339 11.9778 40.2747C11.7429 36.9866 14.0447 34.3092 17.7557 34.2153C18.1315 34.2153 18.5073 34.2153 18.8831 34.2153C62.9454 34.2153 107.008 34.2153 151.07 34.2153C153.09 34.2153 155.063 34.4032 156.66 36.0472C158.445 37.8791 158.398 39.9459 157.787 42.0596Z" fill="black"/>
<path d="M107.712 164.985C107.759 167.381 110.108 169.87 112.457 169.964C115.51 170.105 118.282 168.226 118.61 165.596C118.892 163.153 119.174 160.757 119.362 158.315C119.785 152.115 120.114 145.867 120.489 139.667C120.724 135.722 121.006 131.776 121.241 127.83C121.617 121.724 122.04 115.618 122.368 109.558C122.65 104.203 122.885 98.8016 123.12 93.4468C123.214 91.3331 123.402 89.2663 123.496 87.1526C123.731 82.2675 123.966 77.4294 124.247 72.5443C124.341 70.5715 121.946 68.129 118.845 67.9881C116.309 67.8472 113.584 70.0548 113.349 72.4504C113.067 75.2687 112.786 78.087 112.598 80.9053C112.175 87.0117 111.846 93.118 111.47 99.1774C111.235 103.17 110.954 107.163 110.719 111.202C110.343 117.309 109.92 123.415 109.591 129.474C109.403 132.809 109.356 136.144 109.215 139.526C109.122 141.64 108.981 143.707 108.84 145.82C108.417 151.363 107.994 156.859 107.571 162.402C107.618 162.402 107.665 162.402 107.712 162.402C107.712 163.247 107.712 164.139 107.712 164.985Z" fill="black"/>
<path d="M46.974 92.9301C47.2558 96.6409 47.4907 100.305 47.6786 104.015C48.0544 110.357 48.4771 116.745 48.806 123.086C48.9939 126.374 49.0408 129.662 49.1818 132.95C49.2757 134.97 49.4166 137.037 49.5576 139.056C49.9334 144.223 50.3092 149.39 50.685 154.557C50.8729 157.329 50.8259 160.147 51.1077 162.918C51.2487 164.468 51.6245 166.065 52.2821 167.428C53.2216 169.447 55.8992 170.481 58.107 170.011C60.0799 169.635 62.2877 167.334 62.2877 165.22C62.2877 162.448 62.0998 159.677 61.9589 156.906C61.5831 150.565 61.2073 144.176 60.8315 137.835C60.6436 134.688 60.5966 131.541 60.4557 128.347C60.3618 126.186 60.2208 124.026 60.0799 121.865C59.7041 116.933 59.2813 112.048 58.9525 107.116C58.7646 104.015 58.7176 100.915 58.5767 97.8152C58.4828 95.7015 58.3418 93.6347 58.2009 91.521C57.8251 86.3071 57.4023 81.0932 56.9796 75.8324C57.0735 75.8324 57.1675 75.8324 57.2614 75.7854C57.0735 74.6581 56.8856 73.4838 56.7447 72.3565C56.3689 69.9609 54.7248 68.4108 51.0138 67.9411C49.4166 67.7532 46.974 69.0214 46.4572 70.9943C45.8935 73.3429 45.7996 75.8793 45.8935 78.3219C46.0814 83.2539 46.5982 88.092 46.974 92.9301Z" fill="black"/>
<path d="M79.5744 164.891C79.5744 168.367 83.5673 171.326 87.2313 169.588C90.0498 168.226 90.8014 165.784 90.8014 162.918C90.8014 134.453 90.8014 106.035 90.8014 77.5703C90.8014 75.8324 90.6135 74.1414 90.4256 72.4034C90.0968 69.3972 86.7616 67.5653 84.037 68.2229C80.7488 68.9745 79.5744 70.6655 79.5744 74.0944C79.5744 89.0784 79.5744 104.109 79.5744 119.093C79.5744 134.359 79.5744 149.625 79.5744 164.891Z" fill="black"/>
</svg>