<?xml version="1.0" encoding="UTF-8"?><svg id="Capa_2" xmlns="http://www.w3.org/2000/svg" viewBox="0 0 50 48.7"><g id="Capa_1-2"><path d="m17.66,48.7c-1.23-.03-2.43-.8-3.41-1.98-.93-1.13-1.84-2.26-2.76-3.4-.91-1.12-1.81-2.24-2.72-3.36-.9-1.1-1.81-2.2-2.71-3.3-1.06-1.3-2.12-2.6-3.18-3.9-.67-.82-1.37-1.61-1.97-2.48-1.54-2.25-1.07-5.04.88-6.82.89-.82,2.01-1.23,3.2-1.25,1.57-.02,2.94.58,4.1,1.67,1.87,1.75,3.75,3.48,5.64,5.2,1.04.95,2.11,1.88,3.16,2.83.45.4,1.17.46,1.58.02.93-.99,1.81-2.02,2.72-3.03.69-.77,1.38-1.53,2.06-2.3,1.33-1.51,2.66-3.03,3.99-4.54.64-.73,1.3-1.45,1.95-2.18,1.36-1.54,2.71-3.08,4.07-4.62.63-.72,1.27-1.42,1.91-2.14,1.37-1.55,2.74-3.11,4.11-4.66.68-.77,1.38-1.52,2.06-2.3,1.02-1.15,2.02-2.32,3.04-3.47.69-.79,1.39-1.57,2.11-2.33.4-.43,1.42-.48,1.86-.14.58.44.88,1.19.43,1.91-1.88,3-3.76,6-5.62,9.01-1.85,2.99-3.68,6-5.54,8.99-1.67,2.69-3.36,5.36-5.03,8.04-1.85,2.97-3.68,5.96-5.53,8.94-1.69,2.71-3.38,5.43-5.09,8.13-.43.69-.89,1.38-1.43,1.98-.93,1.03-2.15,1.48-3.89,1.49Z"/></g></svg>