<?xml version="1.0" encoding="utf-8"?>
<!-- Generator: Adobe Illustrator 27.7.0, SVG Export Plug-In . SVG Version: 6.00 Build 0)  -->
<svg version="1.1" id="Layer_1" xmlns="http://www.w3.org/2000/svg" xmlns:xlink="http://www.w3.org/1999/xlink" x="0px" y="0px"
	 viewBox="0 0 24.1 24" style="enable-background:new 0 0 24.1 24;" xml:space="preserve">
<style type="text/css">
	.st0{fill:#FF5C35;}
</style>
<path class="st0" d="M18,8V5.3c0.7-0.3,1.2-1.1,1.2-1.9V3.3c0-1.2-1-2.1-2.1-2.1H17c-1.2,0-2.1,1-2.1,2.1v0.1c0,0.8,0.5,1.6,1.2,1.9
	V8c-1.1,0.2-2.1,0.6-2.9,1.3L5.7,3.4c0-0.2,0.1-0.4,0.1-0.6c0-1.3-1.1-2.4-2.4-2.4C2,0.4,1,1.5,1,2.8C1,4.1,2,5.2,3.4,5.2
	c0.4,0,0.8-0.1,1.2-0.3l7.5,5.8c-0.6,1-1,2.1-1,3.3c0,1.3,0.4,2.5,1.1,3.5l-2.3,2.3c-0.2-0.1-0.4-0.1-0.6-0.1c-1.1,0-2,0.9-2,2
	c0,1.1,0.9,2,2,2c1.1,0,2-0.9,2-2c0-0.2,0-0.4-0.1-0.6l2.2-2.2c1,0.8,2.3,1.2,3.7,1.2c3.3,0,6.1-2.7,6.1-6.1C23.1,11,20.9,8.5,18,8z
	 M17,17.1c-1.7,0-3.1-1.4-3.1-3.1c0-1.7,1.4-3.1,3.1-3.1c1.7,0,3.1,1.4,3.1,3.1C20.1,15.7,18.8,17.1,17,17.1z"/>
</svg>
