<svg width="16" height="16" viewBox="0 0 16 16" fill="none" xmlns="http://www.w3.org/2000/svg">
<path d="M13.1631 3.73016C13.1631 3.91437 13.1084 4.09443 13.006 4.24753C12.9036 4.40064 12.758 4.5199 12.5877 4.5902C12.4175 4.6605 12.2302 4.67868 12.0496 4.64244C11.869 4.6062 11.7032 4.51718 11.5732 4.38663C11.4433 4.25609 11.355 4.08991 11.3195 3.90914C11.2841 3.72838 11.3031 3.54116 11.3742 3.37121C11.4452 3.20126 11.5651 3.05623 11.7187 2.95449C11.8722 2.85274 12.0525 2.79887 12.2368 2.79969C12.3588 2.79969 12.4795 2.82379 12.5922 2.8706C12.7049 2.91741 12.8072 2.98601 12.8932 3.07247C12.9793 3.15893 13.0475 3.26153 13.0938 3.3744C13.1401 3.48726 13.1636 3.60817 13.1631 3.73016ZM12.0093 7.89041C12.0093 8.66135 11.7808 9.41499 11.3526 10.0561C10.9245 10.6972 10.3159 11.1971 9.60385 11.4925C8.89175 11.7879 8.10808 11.8656 7.35183 11.7158C6.59559 11.566 5.9007 11.1954 5.35499 10.6508C4.80928 10.1063 4.43722 9.41219 4.28582 8.65627C4.13442 7.90034 4.21046 7.1165 4.50435 6.40378C4.79825 5.69106 5.29679 5.08143 5.937 4.65193C6.57722 4.22243 7.33038 3.99233 8.10132 3.9907C8.61398 3.99015 9.12172 4.09059 9.59557 4.28628C10.0694 4.48196 10.5001 4.76906 10.863 5.13118C11.2259 5.49331 11.5139 5.92336 11.7106 6.39679C11.9072 6.87022 12.0088 7.37775 12.0093 7.89041ZM10.6074 7.89041C10.6074 7.39967 10.4619 6.91994 10.1892 6.5119C9.91658 6.10386 9.52906 5.78583 9.07567 5.59803C8.62228 5.41022 8.12338 5.36109 7.64206 5.45683C7.16075 5.55257 6.71862 5.78888 6.37161 6.1359C6.0246 6.48291 5.78829 6.92502 5.69255 7.40634C5.59681 7.88766 5.64594 8.38656 5.83374 8.83995C6.02154 9.29334 6.33958 9.68086 6.74762 9.95351C7.15566 10.2262 7.63538 10.3717 8.12613 10.3717C8.7842 10.3717 9.41532 10.1103 9.88065 9.64493C10.346 9.1796 10.6074 8.54849 10.6074 7.89041ZM15.9835 4.75575C15.9835 3.49445 15.4824 2.2848 14.5905 1.39293C13.6987 0.501051 12.489 0 11.2277 0H4.75575C3.49445 0 2.2848 0.501051 1.39292 1.39293C0.501044 2.2848 0 3.49445 0 4.75575V11.2484C0 12.5097 0.501044 13.7193 1.39292 14.6112C2.2848 15.5031 3.49445 16.0041 4.75575 16.0041H11.2443C12.5056 16.0041 13.7152 15.5031 14.6071 14.6112C15.4989 13.7193 16 12.5097 16 11.2484L15.9835 4.75575ZM14.4244 11.1739C14.4244 12.0404 14.0802 12.8714 13.4675 13.4841C12.8548 14.0967 12.0239 14.4409 11.1574 14.4409H4.82605C3.95959 14.4409 3.12862 14.0967 2.51594 13.4841C1.90326 12.8714 1.55905 12.0404 1.55905 11.1739V4.83019C1.55905 3.96373 1.90326 3.13276 2.51594 2.52008C3.12862 1.9074 3.95959 1.56319 4.82605 1.56319H11.1739C12.0404 1.56319 12.8714 1.9074 13.4841 2.52008C14.0967 3.13276 14.4409 3.96373 14.4409 4.83019L14.4244 11.1739Z" fill="white"/>
</svg>
