<svg width="17" height="16" viewBox="0 0 17 16" fill="none" xmlns="http://www.w3.org/2000/svg">
<path d="M0 1.85859C0 1.31985 0.190785 0.87541 0.572338 0.525253C0.953891 0.175079 1.44993 0 2.06042 0C2.66001 0 3.14513 0.17238 3.51579 0.517172C3.89734 0.872727 4.08813 1.33602 4.08813 1.90707C4.08813 2.42424 3.9028 2.85521 3.53214 3.2C3.15059 3.55556 2.64911 3.73333 2.02771 3.73333H2.01136C1.41176 3.73333 0.926648 3.55556 0.555985 3.2C0.185323 2.84444 0 2.3973 0 1.85859ZM0.212583 16V5.20404H3.84284V16H0.212583ZM5.8542 16H9.48446V9.97172C9.48446 9.5946 9.52807 9.30369 9.61528 9.09899C9.76789 8.73265 9.99956 8.42288 10.3103 8.1697C10.621 7.91649 11.0107 7.7899 11.4795 7.7899C12.7005 7.7899 13.3109 8.60336 13.3109 10.2303V16H16.9412V9.8101C16.9412 8.21548 16.5596 7.00606 15.7965 6.18182C15.0334 5.35758 14.025 4.94545 12.7713 4.94545C11.365 4.94545 10.2694 5.54343 9.48446 6.73939V6.77172H9.4681L9.48446 6.73939V5.20404H5.8542C5.876 5.54882 5.8869 6.62086 5.8869 8.4202C5.8869 10.2195 5.876 12.7461 5.8542 16Z" fill="white"/>
</svg>
