<?xml version="1.0" encoding="utf-8"?>
<!-- Generator: Adobe Illustrator 27.7.0, SVG Export Plug-In . SVG Version: 6.00 Build 0)  -->
<svg version="1.1" id="Capa_1" xmlns="http://www.w3.org/2000/svg" xmlns:xlink="http://www.w3.org/1999/xlink" x="0px" y="0px"
	 viewBox="0 0 97.9 96.1" style="enable-background:new 0 0 97.9 96.1;" xml:space="preserve">
<style type="text/css">
	.st0{fill:#020202;}
	.st1{fill:#FFFFFF;}
</style>
<g>
	<path id="Vector_2" class="st0" d="M95.5,48c0,25.7-20.9,46.6-46.6,46.6S2.3,73.8,2.3,48S23.2,1.4,48.9,1.4
		C74.7,1.4,95.5,22.3,95.5,48"/>
	<path id="Vector_3" class="st1" d="M73.5,23.7H25.1v4h48.4V23.7z"/>
	<path id="Vector_4" class="st1" d="M73.5,68.4H25.1v4h48.4V68.4z"/>
	<path id="Vector_5" class="st1" d="M25.4,48c0-9.7,7.2-17.5,18.1-17.5c7.9,0,12.3,3.9,14.2,6.1l-6.1,6.2c-1.3-1.4-3.4-3.5-7.6-3.5
		c-5.1,0-8.6,3.8-8.6,8.7s3.6,8.8,8.9,8.8c3.8,0,5.7-1,6.5-1.6v-1.9h-5.5v-7.9h14.3v14.9c-3.6,2.5-7.8,5.3-16.1,5.3
		C32.5,65.6,25.4,57.8,25.4,48"/>
	<path id="Vector_6" class="st1" d="M67.7,56.7c2.6,0,4.5,2,4.5,4.5c0,2.5-1.9,4.4-4.5,4.4c-2.6,0-4.5-2-4.5-4.4
		C63.2,58.8,65.1,56.7,67.7,56.7z"/>
</g>
</svg>
