<?xml version="1.0" encoding="utf-8"?>
<!-- Generator: Adobe Illustrator 27.7.0, SVG Export Plug-In . SVG Version: 6.00 Build 0)  -->
<svg version="1.1" id="Capa_1" xmlns="http://www.w3.org/2000/svg" xmlns:xlink="http://www.w3.org/1999/xlink" x="0px" y="0px"
	 viewBox="0 0 683 193" style="enable-background:new 0 0 683 193;" xml:space="preserve">
<style type="text/css">
	.st0{fill:#020202;}
</style>
<path class="st0" d="M683,0H482.9v12.5H683V0z"/>
<path class="st0" d="M683,180.8H482.9V193H683V180.8z"/>
<path class="st0" d="M0,82.9c0-40.1,29.5-72.2,74.9-72.2c32.5,0,50.9,16.2,58.5,25.3l-25.2,25.5c-5.2-6-14-14.6-31.3-14.6
	C55.7,47,41.5,62.6,41.5,83c0,20.3,14.8,36.3,36.7,36.3c15.6,0,23.8-4.2,26.8-6.6v-7.8H82.5V72.4h58.9v61.5
	c-15,10.4-32.3,21.8-66.5,21.8C29.5,155.6,0,123.5,0,82.9z"/>
<path class="st0" d="M188.3,131.3l-6.9,22.1h-33l40-115.5H223l40,115.5h-33l-6.9-22.1H188.3L188.3,131.3z M205.6,71.9l-9.6,33.2
	h19.2L205.6,71.9z"/>
<path class="st0" d="M273.1,37.9h40.8c28.7,0,42.4,13.9,42.4,36.5c0,12.4-5.3,24.3-15.2,30.5l26.4,48.5h-36.2L312,112.7H306v40.8
	h-32.9L273.1,37.9L273.1,37.9z M311.5,85.9c7.4,0,11.4-4.5,11.4-10.4c0-6.4-4-10.1-11.4-10.1H306v20.5L311.5,85.9L311.5,85.9z"/>
<path class="st0" d="M433.7,35.7c13.9,0,26.6,4.1,35,9.9l-9.1,28.7c-5.4-4.5-13.4-8.6-24.3-8.6c-17.5,0-29.2,12.9-29.2,29.7
	c0,16.8,11.7,30,29.2,30c10.9,0,18.8-4.1,24.3-8.6l9.1,28.7c-8.4,5.8-21.1,9.9-35,9.9c-37.5,0-61.9-26.6-61.9-60.1
	C371.7,62,396.2,35.7,433.7,35.7"/>
<path class="st0" d="M515.2,37.9h-32.9v115.5h32.9V37.9z"/>
<path class="st0" d="M565.6,131.3l-6.9,22.1h-33l40-115.5h34.7l40,115.5h-33l-6.9-22.1H565.6z M582.9,71.9l-9.6,33.2h19.2
	L582.9,71.9L582.9,71.9z"/>
<path class="st0" d="M663.8,118.9c10.7,0,18.7,8.3,18.7,18.5c0,10.2-7.9,18.2-18.7,18.2s-18.7-8.3-18.7-18.2
	C645.2,127.5,653.1,118.9,663.8,118.9z"/>
</svg>
