<svg width="15" height="16" viewBox="0 0 15 16" fill="none" xmlns="http://www.w3.org/2000/svg">
<path d="M13.7959 3.76963C13.7122 3.68586 13.6284 3.68586 13.4609 3.68586C13.2096 3.68586 13.042 3.68586 12.7907 3.60209C11.3666 3.26702 10.3614 2.17801 10.2776 0.753927V0.418848C10.2776 0.167539 10.1101 0 9.85878 0H7.26192C7.01061 0 6.84307 0.167539 6.84307 0.418848V10.8901C6.84307 11.8953 6.00537 12.6492 5.08391 12.6492C4.49752 12.6492 3.9949 12.3979 3.65982 11.9791C3.07344 11.2251 3.24098 10.0524 3.9949 9.46597C4.32998 9.21466 4.66506 9.21466 5.33522 9.21466C5.41899 9.21466 5.58653 9.21466 5.67029 9.13089C5.75406 9.04712 5.83783 8.96335 5.83783 8.79581V6.03141C5.83783 5.86387 5.6703 5.61257 5.50276 5.61257C4.16244 5.44503 2.82213 5.7801 1.81689 6.6178C0.895426 7.4555 0.225269 8.62827 0.0577296 10.0524C-0.193579 11.644 0.392808 13.3194 1.48181 14.4084C2.48705 15.4974 3.91113 16 5.25145 16C6.59176 16 7.93208 15.4974 8.93731 14.4921C9.94255 13.4869 10.5289 12.1466 10.5289 10.7225V6.11518C11.5342 6.6178 12.6232 6.95288 13.7122 6.95288C13.9635 6.95288 14.131 6.78534 14.131 6.53403V4.02094C13.9635 3.93717 13.8797 3.8534 13.7959 3.76963Z" fill="white"/>
</svg>
