<svg width="17" height="17" viewBox="0 0 17 17" fill="none" xmlns="http://www.w3.org/2000/svg">
<path d="M12.3945 10.2085C12.2247 10.1236 11.1211 9.61423 10.9513 9.52934C10.7815 9.44444 10.6117 9.44444 10.4419 9.61423C10.2722 9.78402 9.93258 10.2934 9.7628 10.4632C9.6779 10.633 9.50811 10.633 9.33833 10.5481C8.74407 10.2934 8.14981 9.95381 7.64045 9.52934C7.21598 9.10487 6.79151 8.59551 6.45194 8.08614C6.36704 7.91635 6.45193 7.74657 6.53683 7.66167C6.62172 7.57678 6.70662 7.40699 6.8764 7.3221C6.9613 7.2372 7.04619 7.06742 7.04619 6.98252C7.13109 6.89763 7.13109 6.72784 7.04619 6.64295C6.9613 6.55805 6.53683 5.53933 6.36704 5.11486C6.28215 4.5206 6.11236 4.5206 5.94257 4.5206H5.5181C5.34831 4.5206 5.09363 4.69039 5.00874 4.77528C4.49938 5.28464 4.24469 5.8789 4.24469 6.55805C4.32959 7.3221 4.58427 8.08614 5.09363 8.76529C6.02747 10.1236 7.21598 11.2272 8.65918 11.9064C9.08364 12.0762 9.42322 12.2459 9.84769 12.3308C10.2722 12.5006 10.6966 12.5006 11.206 12.4157C11.8002 12.3308 12.3096 11.9064 12.6492 11.397C12.819 11.0574 12.819 10.7179 12.7341 10.3783L12.3945 10.2085ZM14.5169 2.48315C11.206 -0.827715 5.85768 -0.827715 2.54682 2.48315C-0.169788 5.19975 -0.679151 9.35955 1.18851 12.6704L0 17L4.49938 15.8115C5.77278 16.4906 7.13109 16.8302 8.48939 16.8302C13.1586 16.8302 16.8939 13.0949 16.8939 8.42572C16.9788 6.21848 16.0449 4.09613 14.5169 2.48315ZM12.2247 14.3683C11.1211 15.0474 9.84769 15.4719 8.48939 15.4719C7.21598 15.4719 6.02747 15.1323 4.92385 14.5381L4.66916 14.3683L2.03745 15.0474L2.7166 12.5006L2.54682 12.2459C0.509363 8.85019 1.52809 4.60549 4.83895 2.48315C8.14981 0.360799 12.3945 1.46442 14.432 4.69039C16.4694 8.00125 15.5356 12.3308 12.2247 14.3683Z" fill="white"/>
</svg>
